<svg xmlns="http://www.w3.org/2000/svg" width="1200" height="620" viewBox="0 0 1200 620">
<rect width="1200" height="620" fill="#f5f7fb"/>
<rect x="35" y="30" width="1130" height="560" rx="22" fill="white" stroke="#d9dee8"/>
<text x="70" y="82" font-family="Arial, sans-serif" font-size="30" font-weight="700" fill="#172033">Supply Chain Delivery Performance</text>
<text x="70" y="112" font-family="Arial, sans-serif" font-size="16" fill="#667085">Executive overview · validated order-level delivery and item-level commercial KPIs</text>
<g font-family="Arial, sans-serif">
<rect x="70" y="145" width="240" height="105" rx="14" fill="#f8fafc" stroke="#e2e8f0"/><text x="90" y="178" font-size="15" fill="#667085">TOTAL SALES</text><text x="90" y="222" font-size="28" font-weight="700" fill="#172033">$33,054,402.4</text>
<rect x="330" y="145" width="240" height="105" rx="14" fill="#f8fafc" stroke="#e2e8f0"/><text x="350" y="178" font-size="15" fill="#667085">TOTAL PROFIT</text><text x="350" y="222" font-size="28" font-weight="700" fill="#172033">$3,966,903.0</text>
<rect x="590" y="145" width="240" height="105" rx="14" fill="#f8fafc" stroke="#e2e8f0"/><text x="610" y="178" font-size="15" fill="#667085">LATE DELIVERY RATE</text><text x="610" y="222" font-size="28" font-weight="700" fill="#172033">54.8%</text>
<rect x="850" y="145" width="240" height="105" rx="14" fill="#f8fafc" stroke="#e2e8f0"/><text x="870" y="178" font-size="15" fill="#667085">TOTAL ORDERS</text><text x="870" y="222" font-size="28" font-weight="700" fill="#172033">65,752</text>
<rect x="70" y="285" width="520" height="245" rx="14" fill="#f8fafc" stroke="#e2e8f0"/><text x="95" y="325" font-size="19" font-weight="700" fill="#172033">Operational risk</text><text x="95" y="365" font-size="17" fill="#475467">Average shipping delay</text><text x="500" y="365" text-anchor="end" font-size="22" font-weight="700" fill="#172033">0.6 days</text><text x="95" y="410" font-size="17" fill="#475467">Cancellation rate</text><text x="500" y="410" text-anchor="end" font-size="22" font-weight="700" fill="#172033">2.1%</text><text x="95" y="455" font-size="17" fill="#475467">Order items analyzed</text><text x="500" y="455" text-anchor="end" font-size="22" font-weight="700" fill="#172033">180,519</text>
<rect x="610" y="285" width="480" height="245" rx="14" fill="#f8fafc" stroke="#e2e8f0"/><text x="635" y="325" font-size="19" font-weight="700" fill="#172033">Analysis coverage</text><text x="635" y="370" font-size="17" fill="#475467">Delivery &amp; logistics performance</text><rect x="635" y="388" width="380" height="10" rx="5" fill="#dbe4f0"/><rect x="635" y="388" width="330" height="10" rx="5" fill="#667085"/><text x="635" y="435" font-size="17" fill="#475467">Market &amp; commercial performance</text><rect x="635" y="453" width="380" height="10" rx="5" fill="#dbe4f0"/><rect x="635" y="453" width="290" height="10" rx="5" fill="#667085"/><text x="635" y="500" font-size="14" fill="#667085">Interactive HTML dashboard contains four analytical tabs.</text>
</g></svg>
