<svg xmlns="http://www.w3.org/2000/svg" width="1160" height="560" viewBox="0 0 1160 560">
<rect width="100%" height="100%" fill="#F7F8FA"/>
<text x="580.0" y="36.0" font-family="Segoe UI, Arial, sans-serif" font-size="22" font-weight="700" fill="#2B2B2B" text-anchor="middle">Monthly Sales and Late Delivery Rate</text>
<line x1="80" y1="440" x2="1000" y2="440" stroke="#BBBBBB"/>
<line x1="80" y1="75" x2="80" y2="440" stroke="#BBBBBB"/>
<text x="22.0" y="257.5" font-family="Segoe UI, Arial, sans-serif" font-size="12" font-weight="600" fill="#2B2B2B" text-anchor="middle">Scaled values</text>
<circle cx="80.0" cy="435.9" r="3" fill="#2F5F8F"/>
<circle cx="105.6" cy="436.6" r="3" fill="#2F5F8F"/>
<circle cx="131.1" cy="435.9" r="3" fill="#2F5F8F"/>
<circle cx="156.7" cy="436.1" r="3" fill="#2F5F8F"/>
<circle cx="182.2" cy="435.9" r="3" fill="#2F5F8F"/>
<circle cx="207.8" cy="436.0" r="3" fill="#2F5F8F"/>
<circle cx="233.3" cy="435.9" r="3" fill="#2F5F8F"/>
<circle cx="258.9" cy="436.0" r="3" fill="#2F5F8F"/>
<circle cx="284.4" cy="436.1" r="3" fill="#2F5F8F"/>
<circle cx="310.0" cy="435.9" r="3" fill="#2F5F8F"/>
<circle cx="335.6" cy="436.0" r="3" fill="#2F5F8F"/>
<circle cx="361.1" cy="435.8" r="3" fill="#2F5F8F"/>
<circle cx="386.7" cy="435.9" r="3" fill="#2F5F8F"/>
<circle cx="412.2" cy="436.3" r="3" fill="#2F5F8F"/>
<circle cx="437.8" cy="436.0" r="3" fill="#2F5F8F"/>
<circle cx="463.3" cy="436.1" r="3" fill="#2F5F8F"/>
<circle cx="488.9" cy="436.0" r="3" fill="#2F5F8F"/>
<circle cx="514.4" cy="436.1" r="3" fill="#2F5F8F"/>
<circle cx="540.0" cy="435.9" r="3" fill="#2F5F8F"/>
<circle cx="565.6" cy="435.9" r="3" fill="#2F5F8F"/>
<circle cx="591.1" cy="436.1" r="3" fill="#2F5F8F"/>
<circle cx="616.7" cy="435.9" r="3" fill="#2F5F8F"/>
<circle cx="642.2" cy="435.9" r="3" fill="#2F5F8F"/>
<circle cx="667.8" cy="435.9" r="3" fill="#2F5F8F"/>
<circle cx="693.3" cy="436.0" r="3" fill="#2F5F8F"/>
<circle cx="718.9" cy="436.2" r="3" fill="#2F5F8F"/>
<circle cx="744.4" cy="435.9" r="3" fill="#2F5F8F"/>
<circle cx="770.0" cy="435.9" r="3" fill="#2F5F8F"/>
<circle cx="795.6" cy="435.5" r="3" fill="#2F5F8F"/>
<circle cx="821.1" cy="436.0" r="3" fill="#2F5F8F"/>
<circle cx="846.7" cy="435.6" r="3" fill="#2F5F8F"/>
<circle cx="872.2" cy="435.5" r="3" fill="#2F5F8F"/>
<circle cx="897.8" cy="435.3" r="3" fill="#2F5F8F"/>
<circle cx="923.3" cy="435.7" r="3" fill="#2F5F8F"/>
<circle cx="948.9" cy="438.3" r="3" fill="#2F5F8F"/>
<circle cx="974.4" cy="439.0" r="3" fill="#2F5F8F"/>
<circle cx="1000.0" cy="440.0" r="3" fill="#2F5F8F"/>
<polyline points="80.0,435.9 105.6,436.6 131.1,435.9 156.7,436.1 182.2,435.9 207.8,436.0 233.3,435.9 258.9,436.0 284.4,436.1 310.0,435.9 335.6,436.0 361.1,435.8 386.7,435.9 412.2,436.3 437.8,436.0 463.3,436.1 488.9,436.0 514.4,436.1 540.0,435.9 565.6,435.9 591.1,436.1 616.7,435.9 642.2,435.9 667.8,435.9 693.3,436.0 718.9,436.2 744.4,435.9 770.0,435.9 795.6,435.5 821.1,436.0 846.7,435.6 872.2,435.5 897.8,435.3 923.3,435.7 948.9,438.3 974.4,439.0 1000.0,440.0" fill="none" stroke="#2F5F8F" stroke-width="2.2"/>
<rect x="1025" y="75" width="12" height="12" fill="#2F5F8F"/>
<text x="1044.0" y="86.0" font-family="Segoe UI, Arial, sans-serif" font-size="12" font-weight="400" fill="#2B2B2B" text-anchor="start">Sales ($M)</text>
<circle cx="80.0" cy="96.7" r="3" fill="#B23A48"/>
<circle cx="105.6" cy="89.9" r="3" fill="#B23A48"/>
<circle cx="131.1" cy="90.2" r="3" fill="#B23A48"/>
<circle cx="156.7" cy="94.7" r="3" fill="#B23A48"/>
<circle cx="182.2" cy="92.4" r="3" fill="#B23A48"/>
<circle cx="207.8" cy="92.5" r="3" fill="#B23A48"/>
<circle cx="233.3" cy="92.0" r="3" fill="#B23A48"/>
<circle cx="258.9" cy="90.7" r="3" fill="#B23A48"/>
<circle cx="284.4" cy="84.8" r="3" fill="#B23A48"/>
<circle cx="310.0" cy="90.8" r="3" fill="#B23A48"/>
<circle cx="335.6" cy="93.3" r="3" fill="#B23A48"/>
<circle cx="361.1" cy="91.3" r="3" fill="#B23A48"/>
<circle cx="386.7" cy="81.1" r="3" fill="#B23A48"/>
<circle cx="412.2" cy="95.2" r="3" fill="#B23A48"/>
<circle cx="437.8" cy="83.5" r="3" fill="#B23A48"/>
<circle cx="463.3" cy="94.6" r="3" fill="#B23A48"/>
<circle cx="488.9" cy="89.1" r="3" fill="#B23A48"/>
<circle cx="514.4" cy="75.0" r="3" fill="#B23A48"/>
<circle cx="540.0" cy="106.0" r="3" fill="#B23A48"/>
<circle cx="565.6" cy="85.3" r="3" fill="#B23A48"/>
<circle cx="591.1" cy="90.5" r="3" fill="#B23A48"/>
<circle cx="616.7" cy="89.9" r="3" fill="#B23A48"/>
<circle cx="642.2" cy="93.9" r="3" fill="#B23A48"/>
<circle cx="667.8" cy="82.2" r="3" fill="#B23A48"/>
<circle cx="693.3" cy="96.8" r="3" fill="#B23A48"/>
<circle cx="718.9" cy="93.0" r="3" fill="#B23A48"/>
<circle cx="744.4" cy="88.2" r="3" fill="#B23A48"/>
<circle cx="770.0" cy="104.1" r="3" fill="#B23A48"/>
<circle cx="795.6" cy="91.3" r="3" fill="#B23A48"/>
<circle cx="821.1" cy="93.7" r="3" fill="#B23A48"/>
<circle cx="846.7" cy="93.5" r="3" fill="#B23A48"/>
<circle cx="872.2" cy="86.5" r="3" fill="#B23A48"/>
<circle cx="897.8" cy="92.1" r="3" fill="#B23A48"/>
<circle cx="923.3" cy="95.2" r="3" fill="#B23A48"/>
<circle cx="948.9" cy="89.0" r="3" fill="#B23A48"/>
<circle cx="974.4" cy="88.4" r="3" fill="#B23A48"/>
<circle cx="1000.0" cy="81.3" r="3" fill="#B23A48"/>
<polyline points="80.0,96.7 105.6,89.9 131.1,90.2 156.7,94.7 182.2,92.4 207.8,92.5 233.3,92.0 258.9,90.7 284.4,84.8 310.0,90.8 335.6,93.3 361.1,91.3 386.7,81.1 412.2,95.2 437.8,83.5 463.3,94.6 488.9,89.1 514.4,75.0 540.0,106.0 565.6,85.3 591.1,90.5 616.7,89.9 642.2,93.9 667.8,82.2 693.3,96.8 718.9,93.0 744.4,88.2 770.0,104.1 795.6,91.3 821.1,93.7 846.7,93.5 872.2,86.5 897.8,92.1 923.3,95.2 948.9,89.0 974.4,88.4 1000.0,81.3" fill="none" stroke="#B23A48" stroke-width="2.2"/>
<rect x="1025" y="99" width="12" height="12" fill="#B23A48"/>
<text x="1044.0" y="110.0" font-family="Segoe UI, Arial, sans-serif" font-size="12" font-weight="400" fill="#2B2B2B" text-anchor="start">Late rate (%)</text>
<text x="80.0" y="466" font-family="Segoe UI, Arial, sans-serif" font-size="10" fill="#2B2B2B" text-anchor="end" transform="rotate(-45 80.0,466)">2015-01</text>
<text x="131.1" y="466" font-family="Segoe UI, Arial, sans-serif" font-size="10" fill="#2B2B2B" text-anchor="end" transform="rotate(-45 131.1,466)">2015-03</text>
<text x="182.2" y="466" font-family="Segoe UI, Arial, sans-serif" font-size="10" fill="#2B2B2B" text-anchor="end" transform="rotate(-45 182.2,466)">2015-05</text>
<text x="233.3" y="466" font-family="Segoe UI, Arial, sans-serif" font-size="10" fill="#2B2B2B" text-anchor="end" transform="rotate(-45 233.3,466)">2015-07</text>
<text x="284.4" y="466" font-family="Segoe UI, Arial, sans-serif" font-size="10" fill="#2B2B2B" text-anchor="end" transform="rotate(-45 284.4,466)">2015-09</text>
<text x="335.6" y="466" font-family="Segoe UI, Arial, sans-serif" font-size="10" fill="#2B2B2B" text-anchor="end" transform="rotate(-45 335.6,466)">2015-11</text>
<text x="386.7" y="466" font-family="Segoe UI, Arial, sans-serif" font-size="10" fill="#2B2B2B" text-anchor="end" transform="rotate(-45 386.7,466)">2016-01</text>
<text x="437.8" y="466" font-family="Segoe UI, Arial, sans-serif" font-size="10" fill="#2B2B2B" text-anchor="end" transform="rotate(-45 437.8,466)">2016-03</text>
<text x="488.9" y="466" font-family="Segoe UI, Arial, sans-serif" font-size="10" fill="#2B2B2B" text-anchor="end" transform="rotate(-45 488.9,466)">2016-05</text>
<text x="540.0" y="466" font-family="Segoe UI, Arial, sans-serif" font-size="10" fill="#2B2B2B" text-anchor="end" transform="rotate(-45 540.0,466)">2016-07</text>
<text x="591.1" y="466" font-family="Segoe UI, Arial, sans-serif" font-size="10" fill="#2B2B2B" text-anchor="end" transform="rotate(-45 591.1,466)">2016-09</text>
<text x="642.2" y="466" font-family="Segoe UI, Arial, sans-serif" font-size="10" fill="#2B2B2B" text-anchor="end" transform="rotate(-45 642.2,466)">2016-11</text>
<text x="693.3" y="466" font-family="Segoe UI, Arial, sans-serif" font-size="10" fill="#2B2B2B" text-anchor="end" transform="rotate(-45 693.3,466)">2017-01</text>
<text x="744.4" y="466" font-family="Segoe UI, Arial, sans-serif" font-size="10" fill="#2B2B2B" text-anchor="end" transform="rotate(-45 744.4,466)">2017-03</text>
<text x="795.6" y="466" font-family="Segoe UI, Arial, sans-serif" font-size="10" fill="#2B2B2B" text-anchor="end" transform="rotate(-45 795.6,466)">2017-05</text>
<text x="846.7" y="466" font-family="Segoe UI, Arial, sans-serif" font-size="10" fill="#2B2B2B" text-anchor="end" transform="rotate(-45 846.7,466)">2017-07</text>
<text x="897.8" y="466" font-family="Segoe UI, Arial, sans-serif" font-size="10" fill="#2B2B2B" text-anchor="end" transform="rotate(-45 897.8,466)">2017-09</text>
<text x="948.9" y="466" font-family="Segoe UI, Arial, sans-serif" font-size="10" fill="#2B2B2B" text-anchor="end" transform="rotate(-45 948.9,466)">2017-11</text>
<text x="1000.0" y="466" font-family="Segoe UI, Arial, sans-serif" font-size="10" fill="#2B2B2B" text-anchor="end" transform="rotate(-45 1000.0,466)">2018-01</text>
</svg>