<svg xmlns="http://www.w3.org/2000/svg" width="960" height="560" viewBox="0 0 960 560">
<rect width="100%" height="100%" fill="#F7F8FA"/>
<text x="480.0" y="38.0" font-family="Segoe UI, Arial, sans-serif" font-size="22" font-weight="700" fill="#2B2B2B" text-anchor="middle">Distribution of Shipping Delay Days</text>
<text x="24.0" y="250.0" font-family="Segoe UI, Arial, sans-serif" font-size="12" font-weight="600" fill="#2B2B2B" text-anchor="middle">Orders</text>
<line x1="90" y1="420" x2="920" y2="420" stroke="#BBBBBB"/>
<line x1="90" y1="80" x2="90" y2="420" stroke="#BBBBBB"/>
<rect x="90.0" y="298.4" width="103.1" height="121.6" fill="#5C4B8A" rx="2"/>
<text x="141.6" y="290.4" font-family="Segoe UI, Arial, sans-serif" font-size="11" font-weight="600" fill="#2B2B2B" text-anchor="middle">7,910.0</text>
<text x="141.6" y="444.0" font-family="Segoe UI, Arial, sans-serif" font-size="11" fill="#2B2B2B" text-anchor="end" transform="rotate(-35 141.6,444.0)">-2</text>
<rect x="211.1" y="298.9" width="103.1" height="121.1" fill="#5C4B8A" rx="2"/>
<text x="262.7" y="290.9" font-family="Segoe UI, Arial, sans-serif" font-size="11" font-weight="600" fill="#2B2B2B" text-anchor="middle">7,877.0</text>
<text x="262.7" y="444.0" font-family="Segoe UI, Arial, sans-serif" font-size="11" fill="#2B2B2B" text-anchor="end" transform="rotate(-35 262.7,444.0)">-1</text>
<rect x="332.3" y="231.4" width="103.1" height="188.6" fill="#5C4B8A" rx="2"/>
<text x="383.9" y="223.4" font-family="Segoe UI, Arial, sans-serif" font-size="11" font-weight="600" fill="#2B2B2B" text-anchor="middle">12,267.0</text>
<text x="383.9" y="444.0" font-family="Segoe UI, Arial, sans-serif" font-size="11" fill="#2B2B2B" text-anchor="end" transform="rotate(-35 383.9,444.0)">0</text>
<rect x="453.4" y="80.0" width="103.1" height="340.0" fill="#5C4B8A" rx="2"/>
<text x="505.0" y="72.0" font-family="Segoe UI, Arial, sans-serif" font-size="11" font-weight="600" fill="#2B2B2B" text-anchor="middle">22,120.0</text>
<text x="505.0" y="444.0" font-family="Segoe UI, Arial, sans-serif" font-size="11" fill="#2B2B2B" text-anchor="end" transform="rotate(-35 505.0,444.0)">1</text>
<rect x="574.6" y="259.2" width="103.1" height="160.8" fill="#5C4B8A" rx="2"/>
<text x="626.1" y="251.2" font-family="Segoe UI, Arial, sans-serif" font-size="11" font-weight="600" fill="#2B2B2B" text-anchor="middle">10,461.0</text>
<text x="626.1" y="444.0" font-family="Segoe UI, Arial, sans-serif" font-size="11" fill="#2B2B2B" text-anchor="end" transform="rotate(-35 626.1,444.0)">2</text>
<rect x="695.7" y="380.8" width="103.1" height="39.2" fill="#5C4B8A" rx="2"/>
<text x="747.3" y="372.8" font-family="Segoe UI, Arial, sans-serif" font-size="11" font-weight="600" fill="#2B2B2B" text-anchor="middle">2,553.0</text>
<text x="747.3" y="444.0" font-family="Segoe UI, Arial, sans-serif" font-size="11" fill="#2B2B2B" text-anchor="end" transform="rotate(-35 747.3,444.0)">3</text>
<rect x="816.9" y="380.6" width="103.1" height="39.4" fill="#5C4B8A" rx="2"/>
<text x="868.4" y="372.6" font-family="Segoe UI, Arial, sans-serif" font-size="11" font-weight="600" fill="#2B2B2B" text-anchor="middle">2,564.0</text>
<text x="868.4" y="444.0" font-family="Segoe UI, Arial, sans-serif" font-size="11" fill="#2B2B2B" text-anchor="end" transform="rotate(-35 868.4,444.0)">4</text>
</svg>